<svg xmlns="http://www.w3.org/2000/svg" xmlns:xlink="http://www.w3.org/1999/xlink" width="500" zoomAndPan="magnify" viewBox="0 0 375 374.999991" height="500" preserveAspectRatio="xMidYMid meet" version="1.0"><defs><clipPath id="id1"><path d="M 97 0 L 252 0 L 252 175.5 L 97 175.5 Z M 97 0 " clip-rule="nonzero"/></clipPath></defs><path fill="rgb(0%, 44.309998%, 73.728943%)" d="M 199.703125 293.46875 C 212.085938 315.910156 252.308594 357.746094 311.375 281.296875 L 311.96875 281.714844 C 325.335938 257.703125 339.753906 229.15625 348.066406 209.253906 C 363.160156 173.117188 375.21875 129.371094 372.703125 111.183594 C 370.1875 93 343.457031 87.648438 318.292969 109.757812 C 293.132812 131.867188 288.734375 155.761719 288.734375 155.761719 C 288.734375 155.761719 256.96875 270.953125 241.871094 299.839844 C 226.773438 328.726562 212.9375 310.539062 210.421875 307.6875 C 209.125 306.21875 204.898438 300.761719 199.703125 293.46875 Z M 106.53125 312.199219 C 116.242188 341.71875 151.207031 299.660156 179.714844 336.449219 C 166.761719 320.878906 155.515625 321.058594 146.15625 326.707031 C 136.308594 332.648438 124.984375 358.804688 112.613281 362.128906 C 100.238281 365.457031 83.050781 366.648438 66.695312 338.355469 C 50.34375 310.058594 8.199219 234.453125 5.476562 219.476562 C 2.746094 204.5 3.167969 191.425781 3.167969 191.425781 C 1.910156 174.308594 14.804688 148.984375 35.5625 166.105469 C 35.5625 166.105469 43.894531 173.59375 49.554688 186.253906 C 55.214844 198.914062 96.886719 292.945312 96.886719 292.945312 C 96.886719 292.945312 103.058594 305.265625 106.605469 312.148438 L 106.53125 312.199219 " fill-opacity="1" fill-rule="nonzero"/><path fill="rgb(94.898987%, 94.898987%, 94.898987%)" d="M 157.148438 184.863281 C 141.230469 189.800781 130.917969 204.539062 134.113281 217.789062 C 137.308594 231.035156 152.800781 237.773438 168.714844 232.835938 C 184.632812 227.902344 194.945312 213.160156 191.753906 199.914062 C 188.554688 186.667969 173.0625 179.929688 157.148438 184.863281 Z M 179.714844 336.449219 C 151.207031 299.660156 116.242188 341.71875 106.53125 312.199219 L 106.605469 312.148438 C 107.488281 313.871094 108.210938 315.246094 108.632812 316.007812 C 110.726562 319.808594 114.5 324.800781 122.675781 312.914062 C 130.855469 301.03125 149.515625 267.507812 149.515625 267.507812 C 149.515625 267.507812 151.609375 263.941406 157.0625 260.132812 C 162.511719 256.332031 173.832031 252.765625 184.109375 269.886719 C 189.085938 278.171875 194.824219 286.632812 199.703125 293.46875 C 212.085938 315.910156 252.308594 357.746094 311.375 281.296875 L 311.96875 281.714844 C 301.046875 301.324219 290.820312 317.914062 285.167969 324.328125 C 272.585938 338.59375 258.542969 352.265625 236.523438 355.472656 C 214.511719 358.683594 195.640625 357.257812 181.800781 339.066406 C 181.105469 338.148438 180.414062 337.28125 179.714844 336.449219 " fill-opacity="1" fill-rule="nonzero"/><g clip-path="url(#id1)"><path fill="rgb(94.898987%, 94.898987%, 94.898987%)" d="M 175.292969 0 C 125.988281 0 98.027344 27.605469 97.234375 67.5625 L 97.234375 69.5625 L 140.757812 69.5625 L 140.757812 67.5625 C 141.714844 49.914062 153.929688 38.527344 172.398438 38.527344 C 190.707031 38.527344 202.910156 49.105469 202.910156 64.03125 C 202.910156 78.957031 196.648438 86.664062 175.933594 99.027344 C 153.765625 112.023438 144.925781 126.46875 147.011719 152.148438 L 147.265625 159 L 189.898438 159 L 189.898438 152.476562 C 189.898438 137.074219 195.84375 129.195312 217.207031 116.84375 C 239.847656 103.515625 251.5625 86.671875 251.5625 62.59375 C 251.5625 25.519531 221.226562 0 175.292969 0 Z M 169.503906 188.8125 C 153.164062 188.8125 142.972656 198.289062 142.972656 213.734375 C 142.972656 229.039062 153.175781 238.5 169.503906 238.5 C 185.832031 238.5 195.898438 229.039062 195.898438 213.734375 C 195.898438 198.289062 185.84375 188.8125 169.503906 188.8125 Z M 169.503906 188.8125 " fill-opacity="1" fill-rule="nonzero"/></g></svg>